<svg xmlns="http://www.w3.org/2000/svg" xmlns:xlink="http://www.w3.org/1999/xlink" viewBox="0 0 896 462.5">
  <defs>
    <style>
      .cls-1 {
        isolation: isolate;
      }

      .cls-2 {
        fill: white;
        fill-rule: evenodd;
      }
    </style>
  </defs>
  <g id="eyestay" class="cls-1">
    <path class="cls-2" d="M405,119v8c-1.12,3.33-3.39,5.08-2.5,10,7.14,3.66,13.09,1,20.5-.5,1.88-3.91,9.63-12.87,15-13,1.59,2.39,2.09,4,2,8.5-6.54,6.07-9,16.89-7.5,29.5,3.12,2.44,4.37,5.36,10,5.5,1.38-1.35,3.43-1.83,5-3,1.8-1.34,2.49-3.85,4-5.5s3.64-2.46,5-4c2.24-2.53,2.86-6.39,4.5-9.5l1.5-1.5c1.8-4.22-.46-11.22,6.5-11.5,1.07,1.91,2.5,2.48,3,5-1.35,2.06,0,7.63,0,11,0,10.64,3.66,23.32,14.5,23l4.5-1.5c2-3.24,2.58-9.68,3.5-14,1.43-.93,5.64-4.63,8-1.5,1.19,1.58-.07,4.72.5,7,.38,1.53,1.61,4.08,2,5.5v9c.07,10.3-.71,14.41,4.5,21.5,1.5,2,1.72,3.14,5,3.5,1.16.77,4,.56,6,.5l1.5-5,2.5-2.5c-.06-.81-.73-2.09,0-3.5.65-1.26,2.93-1.54,3.5-3,.84-2.16,1.87-15.1,1-18.5-.23-.91-1.57-3.27-1.5-4.5.09-1.61,1.57-3.69,2-5.5,3.14-.25,6,.48,10.5.5v1c-1.74,1.54-3.34,2.8-3.5,6l1.5.5c1.47.92,6.27.69,8,1,.83,1.66,1.64,2.25,2,4.5-2.67,3.41-5.49,17.47-2.5,22,.87,2.73,10.42,13.32,13.5,13.5,1.45-.93,4.08-.6,5.5-1.5,2.13-1.35,5.81-4.23,7-6.5.7-1.35.22-2.8,1-4,1.48-2.29,4.52-4.59,5.5-7.5,2.07-6.16-3-9.07-4-13-1.81-7,6.87-16.72,10.5-18.5,1.28,6.11,10,6.78,12.5,12-1.08,1.94.69,5.46-.5,8-2,4.19-8.78,17.31-7,22-1.09,2.12-3.52,3.52-4.5,6-1.09,2.74-3.93,10.54-1.5,14.5,1.92,6.1,8.56,12,17,8.5,1.07-2.63,2.85-7.38,5-9s6.36-2.24,8-4.5c.33-1.5.67-3,1-4.5.8-1.12,3.19-1.38,4-2.5s5.23-14.6,5.5-16.5c2.92.52,3.91,3,6,4,.92.42,3.47-.53,3.5-.5v1a17.55,17.55,0,0,0,4.5,2.5h7.5c5.84,2.13,15,3.36,15.5,10.5-1.15,2,.49,3.87,0,6-.28,1.22-1.65,3.29-2,4.5V222c-.57,1.38-2.6,1.48-3.5,2.5l-1,3.5c-2,3-13.5,13.16-17,14.5l-4,.5c-7.14,2.51-15.59,6.28-25,3.5-2-.58-3.86-2.43-6-3h-5a85.34,85.34,0,0,1-14.5-5c-4.18-2-8.2-1.41-12-3.5-1-.54-1.58-2.55-2.5-3-3.23-1.59-8.33-.89-12-2-3.15-.95-6.82-3.36-10-4.5l-8-.5c-1.32-.35-2.82-1.66-4-2h-8c-.82-.27-2.18-1.74-3-2h-7c-1.51-.39-3.49-1.62-5-2h-7a64.83,64.83,0,0,1-7-2c-4.95-1.89-8.2-5.66-12-8.5-3.4-2.54-7.53-3.94-11-6.5-5.79-4.27-10.75-10-17-14-3.85-2.45-8.49-1.7-13.5-3-3.42-.89-7.83-3-11-4l-5-.5c-3.22-1.37-8.88-3.22-12-5-5.1-2.92-10.2-7.2-14.5-11-4.56-4-10.53-6.43-15.5-10-1.47-1.06-2.86-3.09-4.5-4-1.11-.61-2.59-.19-3.5-1-1.87-1.67-.45-3.61-3.5-4.5-1-.45-4.23.75-6.5,0-.83-.27-2.17-1.72-3-2h-5c-2.48-.83-4.11-3.22-6-4.5-4.72-3.19-9.9-4.07-15-7-2.15-1.23-4.27-3.79-6.5-5-1-.53-3.44-1.79-4-2-1.44-.54-4,1.1-6.5,0-6.73-2.93-10.51-9.92-19-11.5v-2c1.82-.53,4.21.57,6,0l2.5-2.5c6.54-4.19,17.22-5.69,17.5-16-2.05-2.56-2-3.63-7-3.5-1.28-1.38-3.56-3.43-5.5-4H312c-.79-.26-1.71-1.74-2.5-2-4.05-1.34-6.65,1.38-8.5,2l-13.5.5c-.77-1.23-1.15-1.14-1.5-3,1.74-1.7,3.38-6.5,5.5-7.5,2.5-1.18,4.19,0,6-1.5.62-.51,1.26-2.17,2-2.5H303c.79-.27,1.71-1.74,2.5-2,8.52-2.82,16.95,5.26,21,7.5,3.2,1.78,6.25,2.31,9.5,4,4.64,2.42,9.61,5.67,14.5,8l5.5,1c1.18.45,2.8,2.13,4,2.5,3.11,1,5.19-.9,8-1v1c-1.5,1.44-1.37,3.07-2.5,5-2.8,4.77-3.09,6.25-1,12,.67,1.84-.14,6.87,0,8,.29,2.35-1.4,4.26-.5,6,.81,2.35,2.44,2.52,4,4,1.94.07,4.86.27,6-.5,2.16-.77,2.41-2.41,4-3.5l3-1c4.19-2.76,8-7,11.5-10.5,1.65-1.65,4.87-3,6-5q1.25-5.5,2.5-11c-.27-1.53-2.55-3.89-2-6l2.5-2.5a16.54,16.54,0,0,1,7,1c1.84,3.29,1.08,9.33,2,13.5,1.79.55,6,3.08,6.5,5-2.26,2.23-2.66,4.69-4.5,7.5l-5.5,5Z"/>
    <path class="cls-2" d="M475.5,100.5c1.76.12,9.24,1.65,10.5,2.5a10.49,10.49,0,0,0-1.5,4,9,9,0,0,1-3,.5c-4.16-2.74-8.25,2.16-12,2.5a7.8,7.8,0,0,1-.5-2.5c1.4-1.42,1.93-3.75,3.5-5,.92-.58,2.11-.25,2.5-.5C475.38,101.46,475.3,101.53,475.5,100.5Z"/>
    <path class="cls-2" d="M535,131.5c4.15.05,5.18,1.93,8,3,2.55,1,4.17,0,6.5,1,4.72,2,9.67,5.65,14,7l-.5.5-6,6c-1.65-.44-2.29-1.59-3.5-2H542c-.79-.27-1.71-1.74-2.5-2-2.68-.9-7.26-.06-9.5-.5l-.5-1.5a5.41,5.41,0,0,1-.5-3C531.34,137.7,533.23,134.31,535,131.5Z"/>
    <path class="cls-2" d="M388,46.5c1.08.53,2.91.25,4.5,1l2.5,3c4,2,8.19.67,11.5,3.5H406c-2.37,2.16-4.84,3.65-7,6-4.35-.9-7.63-2.54-12-3.5a5.38,5.38,0,0,0-1-1.5C386.7,51.78,387.91,50.58,388,46.5Z"/>
  </g>
  <g id="sole" class="cls-1">
    <path class="cls-2" d="M727,432.5c-.17.83-.33,1.67-.5,2.5-2.57,1.64-3.86,2.55-8.5,2.5-1.31-2.15-2.35-3.05-6-3-.61,4.9-4.22,5.28-10,5-1.13-1.85-2-2.89-5-3-.17,1.17-.33,2.33-.5,3.5-2.15,1.34-4.54,1.58-8.5,1.5-1.4-2.33-2.93-3.13-6-2.5-.26,5.12-4.07,4.79-9.5,4.5-.73-1.05-1.71-2-2.5-3h-4V444c-2.18.74-6,.54-9,.5-1.25-1.87-2.73-2.09-6-2-.17.83-.33,1.67-.5,2.5-2.15,1.34-4.54,1.58-8.5,1.5-1.49-2.43-2.82-3.13-7-3V447a18.4,18.4,0,0,1-5.5.5c-2.29-2.19-4.87-3.06-9.5-3V448c-1.56.54-4.21.53-6.5.5-.8-1-.86-.26-2-1-3.19-2.06-.93-3.16-7.5-3a12.34,12.34,0,0,0-.5,4h-9V446a20.55,20.55,0,0,0-6-.5l-.5.5c-.17,1.17-.33,2.33-.5,3.5h-7c-1.7-2.65-2.24-4.14-7-4l-.5.5c-.17,1.17-.33,2.33-.5,3.5h-9V446a18.4,18.4,0,0,0-5.5-.5c-.81,2.16-1.2,3.28-3.5,4-1.42-1.54-2.73-.06-5-1-2.63-1.09-2.23-3-7-3-1.65,3.44-4.8,3.21-10,3V446a14.47,14.47,0,0,0-4.5-.5,9,9,0,0,0-.5,3h-10V446a18.4,18.4,0,0,0-5.5-.5,9,9,0,0,0-.5,3h-8c-1.34-2.31-2.08-3.11-6-3-1.55,3.25-4.05,3.21-9,3-1.53-2.21-3.06-3.08-7-3-1.44,3-3.34,3.2-8,3-1.82-2.82-2.42-4.17-7.5-4a12.34,12.34,0,0,0-.5,4h-7c-1.82-2.82-2.42-4.17-7.5-4a9,9,0,0,0-.5,3h-6c-1.89-2.64-3.7-4.1-8.5-4a9,9,0,0,0-.5,3h-7c-1.26-1.89-2.47-3.75-5.5-4-1.14,3.37-4.89,3.2-9.5,3-1.62-2.34-3.3-3.11-7.5-3a9,9,0,0,0-.5,3h-7c-1.58-2.46-2.08-4.1-6.5-4-1,2.79-1.55,4-5.5,4-1.07-1.23-1.36-.16-3-1-2.25-1.16-.88-2.89-5-3-1.88,2.7-4.15,3.15-9,3-1.54-2.14-3.12-3.07-7-3-2,2.91-4.8,3.16-10,3a6.92,6.92,0,0,0-1-3.5c-1.08-.72-3.65-.56-5.5-.5-1.12,2.83-2.54,4-6.5,4-2-2.9-3.22-4.17-8.5-4a9,9,0,0,0-.5,3h-7c-1.33-2.08-1.9-3.95-5.5-4-1.19,3.58-4.44,4.2-9.5,4-1.62-2.34-3.3-3.11-7.5-3-.41,1.25-.37,2.32-1.5,3-1.17-1.26-10.47-3-13.5-3a9,9,0,0,0-.5,3h-7c-1.62-2.34-3.3-3.11-7.5-3a9,9,0,0,0-.5,3h-9V441a18.4,18.4,0,0,0-5.5-.5c-1.39,3.46-3.48,4.18-8.5,4-1.58-2.46-2.08-4.1-6.5-4-1.43,3.81-3,4.24-8.5,4-1.5-2.28-2.48-4-6.5-4-1.43,3.81-3,4.24-8.5,4-1.33-1.93-2.66-3-6-3-1.54,3.14-5.36,4.08-10,4a6.92,6.92,0,0,0-1-3.5c-.92-.62-2.85-.54-4.5-.5a12.34,12.34,0,0,0-.5,4h-7c-1.73-2.57-2.84-4.12-7.5-4-1.43,3.81-3,4.24-8.5,4-1.33-1.93-2.66-3-6-3-1.71,2.47-3.56,3.13-8,3-1.62-2.34-3.3-3.11-7.5-3a9,9,0,0,0-.5,3h-9a6.92,6.92,0,0,0-1-3.5c-.92-.62-2.85-.54-4.5-.5a9,9,0,0,0-.5,3h-7c-1.42-2.45-2.33-3.15-6.5-3a9,9,0,0,0-.5,3h-7c-1.53-2.21-3.06-3.08-7-3-1.3,1.77-2.77,2.08-6,2-1.61-2.34-3.34-4.05-7.5-4a9,9,0,0,0-.5,3c-5.8.06-4.87-.78-8-2-2.12-.83-4.24.76-5,1,0,0-9.38-.77-10-1-.17-.33-.33-.67-.5-1H68v-1H62.5c-.56-.2-2.94-1.8-3.5-2H54.5c-.59-.22-2.91-1.76-3.5-2H48.5C43,432,31.07,425.06,28,420.5v-2H27V417c-.59-.95-2.35-1.62-3-2.5V413c-1.24-1.9-3.87-3.35-5-5.5-1.25-2.37,1.13-3.82,0-6.5-.39-.93-2.12-1.68-2.5-3-1.26-4.33,1.9-7.18,1-11-1.12-4.76-7.2-7.78-5-15.5.34-1.18,1.66-2.67,2-4,1-3.8-1.21-15.21-2-18.5v-9c-.81-3.4,0-9.49-1-14-.2-.85-1.26-2.13-1-3.5.46-2.4,1.28-2.08,1-4.5-.63-5.4-.43-10.31,4-11,.84.57,2.45.53,4,.5,7.44,11,29.54,10.09,44,14H72c15.42,4.13,33.08,3.5,52.5,3.5,10.77,0,17.52,2.06,26,0,7.14-1.74,15.77,2.06,20.5,2.5,6.08.57,14.66-.07,20,1l8.5-.5c.42.14,1.58,1.36,2,1.5,4.88,1.58,12.29.74,17,2,2.84.76,6-.58,7.5-1,4.23-1.14,9.08-.15,12,.5,4.21.94,8.74-2.33,14-1s10.63,2.05,16,3c3.33.59,8.86-1.51,13-.5,2.35.57,4.83,1.94,7,2.5l8-.5c1.66.4,4.34,1.6,6,2a6.41,6.41,0,0,0,3-.5s13.48.84,14,1c3,.91,8,2.53,11,3.5l13,.5c1,.32,3.34,1.68,4.5,2,5.23,1.44,9.61-.6,14.5,1,1.74.57,4.13,2.11,6.5,2.5,2.84.46,9.44-1.33,13.5,0,1.32.43,3,2.08,4.5,2.5l8-.5L397,351h6.5c2.44.68,5.84,1.78,9,2.5L431,353c.92.3,2.44,1.7,3.5,2,3.9,1.11,15.53.32,18.5.5h11c6.28,1.68,14.08,1.53,20.5,3H501c1.95.54,4.86,2.05,7,2.5l4.5-.5,23.5.5c5.23,1.17,10.13-.42,15.5,1,.89.23,1.53,1,3,1,3.11.09,6.13-2.13,10-1,4.25,1.24,4.27-.75,8,0,8.86,1.78,18.13.17,25.5-1.5,1.71-.39,5.55.68,7,1,2.34.52,3.9-.7,5-1l7,.5c.8-.2,2.79-1.35,3.5-1.5,2.32-.48,6.45,1.5,9.5.5,1.32-.43,3-2.08,4.5-2.5,3-.86,6.34,1.19,8,1,.54-.06,2.08-1.37,2.5-1.5h6.5c1.1-.35,3.16-1.66,4.5-2,4-1,7.17.68,10.5,0,2.79-.57,7.25-1.81,11-1,1.1.24,4.13,1,6,.5,11-3,23.5-4,34.5-7,4-1.09,6.78.05,10.5-1,10.22-2.89,22.83-5.15,32.5-8h5.5c3.09-.85,7.77-2.2,10.5-3h3.5c2.89-1.05,5.07-4.44,8-5.5,6.09-2.21,13.26-1.27,19.5-3.5,3.33-1.19,9.84-3.14,13-5,2.86-1.68,6.78-4.45,10-5.5h4c10.81-3.18,25.69-11.69,30.5-21,1.41-2.72,3.9-7.65,2.5-13-.61-2.35-1.88-4.88-2.5-7.5H867l8.5,8.5a56.62,56.62,0,0,1,3.5,4.5c.33,1.83.67,3.67,1,5.5.57,1.3,2.49,2.72,3,4,2,4.89,0,10.1,1.5,16,.51,2,2.4,3.57,3,5q.25,7,.5,14c0,17,.13,24.5-7,34.5-1.2,1.68-1,2.94-2,5-1.48,3-4.89,6.25-7,9-1.25,1.63-2.73,1.29-4.5,2.5l-2,3.5c-2.78,2.35-6,3.87-9,6l-4,4c-1.33.92-2.21.28-4,1-1.28.52-2.32,2.39-3.5,3-2.68,1.39-5.27,1.1-8,2.5-1.59.82-3,3.19-4.5,4l-5.5,1c-1,.69-1.81,3-3,3.5l-6,.5c-.6.39-1.3,2.19-2,2.5h-4.5c-1.65.49-3.21,2.41-4.5,3-3.59,1.65-6.49.77-10.5,2-1,.29-1.86,1.73-2.5,2l-6,.5c-1.32.71-2.94,2.89-5,3.5s-2-1.18-3.5-1c-1.71.2-2.33,2.48-3.5,3l-5-.5c-1.3.23-2.93,2.1-4,2.5-4.2,1.58-6.91-2.57-10.5-1l-2.5,3h-4.5c-4,1.37-5,.08-8.5-.5-.57,3.62-3.18,3.73-7.5,3.5-.67.81-.32.56-1.5,1A5.41,5.41,0,0,0,727,432.5Z"/>
  </g>
  <g id="tongue" class="cls-1">
    <path class="cls-2" d="M304.5,29v1.5c2.32.27,2.61,1.33,4,2H313l2,2c2.32,1.27,4.78,1.58,7,3,8.74,5.57,16.35,12.8,23.5,20,3.17,3.19,8.25,7.71,9.5,12.5-.33,1.83-.67,3.67-1,5.5-17.66-2.4-25.76-20.87-49-14.5h-3.5c-2.21.77-4.19,3.49-6,4.5h-2c-.33.67-.67,1.33-1,2-1.7,1.12-3.85,1.59-5.5,2.5V69a16.31,16.31,0,0,0,3-4V62.5c.79-1.51,3.46-1.27,4.5-2.5,1.39-1.66,5.2-11.67,5.5-14,.38-3-1.95-5.87-2-10-2.63-1.86-3.69-4.57-7-4.5-.44.94-.5-1-.5-1,1.57-.94,4.16-2.2,5.5-3.5A26.93,26.93,0,0,0,304.5,29Z"/>
    <path class="cls-2" d="M286.5,70a1.46,1.46,0,0,1,0,2Z"/>
    <path class="cls-2" d="M286,72c.4.51.18.14.5,1H286Z"/>
  </g>
  <g id="lace" class="cls-1">
    <path class="cls-2" d="M303.5,12.5c13.35-.25,27-.63,33,6.5H336c-3.61,5.47-6.07,1.34-11,2s-5.57,5.52-12.5,5.5c-1.23-2-15.17-.11-17.5,1-1,.46-2.64,2.21-3.5,2.5s-2.88-1.23-4.5-.5l-1.5,2c-1.86,1.09-3.66.89-5.5,2l-2.5,3H275c-3.39,1.73-5.42,6.12-8.5,8-2,1.25-5,1.34-6,3.5v7c1.79,1.73,0,4.25,1,7,.18.48,1.82,2,2,2.5V70c.73,1.65,8,10.55,9.5,11.5l4.5,1L281,86c1.64.48,2.65-.78,3.5-1H299c2.23-.56,4.68-2.76,8-2a141.89,141.89,0,0,1,21,6.5c.77,1.6,2.19,5.09,1.5,6.5-2,5.48-9.13,7.65-14,10.5-2.4,1.41-5.38,4.63-8,5.5-1.75.58-2-1.27-3.5-1-.76.13-2.25,1.75-3,2-4.46,1.52-8.54.48-13,2-.82.28-2.17,1.73-3,2H269.5c-6.28,1.67-12.59,4.28-18.5,6h-5.5l-2.5,2.5c-1.93,1.27-3.43.55-6,1.5-2.06.76-4.5,3.17-6.5,4.5-1.63,1.08-2.92,3.35-4.5,3-1.07-.62-2.06-2.85-2.5-4,2.74-1.92,7.33-11,8.5-14.5.9-2.71.27-5.86,1-7,1.61-2.45,2.44-1.07,4.5-2.5.77-.53,1.23-2.47,2-3,1.26-.87,2.74-.12,4-1,.83-.58,2.17-3.42,3-4,1.26-.87,2.74-.12,4-1,1.83-1.28,3.57-4.22,5-6h1v-5c-1.32-.79-3.35-4.69-4-6s-2.1-16.49-1-19h1v-5l2-2v-2c.22-.32,1.78-.68,2-1v-2h1v-3l2-2v-3c.17-.29,1.81-.71,2-1,.87-1.3.12-2.71,1-4,.23-.33,1.77-.67,2-1v-2c1.63-2.3,5-4,7-6,1.38-1.38,2.44-3.89,4-5h2c.72-.51,1.25-2.57,2-3,2.23-1.3,4.87.24,7-1,.23-.14.77-1.87,1-2h4v-1h3l2-2C299.09,12.27,302,14.69,303.5,12.5Z"/>
    <path class="cls-2" d="M443.5,55.5c6.26,0,7,3,10,6,1.06,1.06,3.15,1.81,4,3s.18,2.13,1,3c.65.7,2.52,1.22,3,2,2.76,4.51,2.11,15.69,2,23h3c1.19,2.73,4.05,3.09,6,5,.68.67,1.22,2.52,2,3s2.4.11,3,.5c-3.93.25-8,4.35-8.5,8a5.38,5.38,0,0,1,1.5,1c2.6-.61,5.08-2.35,7-3s5-.2,6.5-.5c1.47-3.19,6.13-8.88,10.5-9,4.82,7.61,18.2,1.16,18,16,7.64-.23,23.63,2.88,26,7v7c1.35.8,1.11,2.38,1,4.5l-4.5-.5c-2.5,4.49-6.39,6.25-6.5,13l1,1c5.85-1.15,8.58.26,12.5,1.5h11c1.57.5,2.4,2.1,4,1.5,2.76-.89,8-6.35,10-8.5,6.67.1,18.82,8.07,19.5,13.5-2.74,1.31-2.21,4.3-4,6.5-.73.9-1.83.43-3,1-2.49,1.22-4.72,4.6-5.5,7.5a19.74,19.74,0,0,0,1,10.5l3,3v6c-1.62,4.82-11.3,18.89-16.5,19.5-1.59,1.07-4,.21-6,0-4-5.5-14.35-13.06-11.5-24.5,1.07-4.3,3.31-7.37,4-12.5l-2-2c-3.58-2-10,.14-11-4.5,2.78-.57,3.81-1.89,4-5h-9.5c-1,1.62-1.49,2-1.5,5,2.81,3.5.23,9.9,1,15.5,1,7-1.26,7.23-3.5,11.5-4,7.71-2.59,12.35-15,9-1.76-2.74-4.56-5.54-5.5-9V168c-.75-4.22-2-7.84-2-13.5-1.7-1.07-2.34-1.53-5.5-1.5-1.38,2.19-3.73,4.82-4.5,7.5-.64,2.22.53,4.86-.5,6.5-1.36,2.15-5.19,3.61-7,5.5-7.8-.35-11.71-11.23-13.5-17.5-2.32-8.15,3.12-22.37-6-23.5-3.15,6.54-4.09,13.86-7.5,20l-8,8c-2,2.7-5.26,9.08-11,7.5-12.47-3.43-7.86-21.76-3.5-30.5l3-2.5c.66-1.44.67-6.66,1-8-1.58-1.12-1.92-1.54-5-1.5-2.22,3-5.49,4.78-8.5,7-1.54,1.14-2,3.94-3.5,5l-3.5.5c-5.79,1.76-10.21,3.71-16.5,1.5-.22-2.37-2-4.66-1-7.5.46-1.37,2.46-2.65,3-4,1.23-3.08.58-6.28,2.5-8.5,2.66-3.07,8.89-9,9.5-13.5-3.8-.75-8.49-3.26-8.5-8,1.33-1.87.69-7.6,0-8.5a13.08,13.08,0,0,0-7.5-2c-.75.93-1.39.86-2,2-1.11,2.19,1.47,4.51,2,6.5.36,1.38-1.89,9.32-2.5,10.5C394.77,112.72,381,120.65,375,127a53.33,53.33,0,0,1-10-.5l-2-3.5c-1-3.47,1.38-6,1-8.5-.72-4.74-1.88-13,0-18,1.47-3.86,5.18-6,8-8.5V83.5c-1.1-.83-1-1.42-2.5-2-1.32-.81-3.66.12-5.5-.5-.8-.27-1.71-1.7-2.5-2h-3c-1.45-.91-1.31-5.22-2-7-2-5.26-11.44-13.45-12-18,.34-.39.66-1.12,1-1.5A4.29,4.29,0,0,1,348,52c3.33,5,10.48,8.12,16,11,1.84,1,4.85,3.45,7,2.5,4.25-1.4,3.78-6.23,7-8l3-.5c2-1,3.64-2.8,5.5-4-.24,2-.67,2.66,1.5,3.5,1.87,1.31,9.3,3.83,11,3,4.21-1.57,4.2-5.76,10.5-6v-2c8.51-3.16,12.69-11.74,21-15C433.66,43.56,443.34,45.22,443.5,55.5Z"/>
    <path class="cls-2" d="M622.5,181c-6.65-.27-11.65-5.06-16.5-7.5-1.86-.94-5.15-.66-6-2.5v-3.5c3.56-.78,3.3-.83,6.5,1h2c.29.19.71,1.83,1,2h3C616.27,172.52,621.45,176.38,622.5,181Z"/>
    <path class="cls-2" d="M586,200h2.5l.5-.5a16.19,16.19,0,0,1,0-3.5c6-1.05,3.88-8.13,10.5-8.5,3,3,12.75,5.42,14.5,8.5-1.77,2.89,1.36,3.71,2,5.5.17,2.33.33,4.67.5,7-2.44,1.69-2.73,5.37-5,7-2.57,1.85-6.15,2.49-8,5-1.39,1.89-1.93,6.35-4,7.5-1.38,1.25-4.26,1.09-7,1-1.35-1.28-3.71-1.66-5-3-.8-.83-.38-1.91-1-3a26.91,26.91,0,0,0-4.5-5C581.94,209.84,585.81,207.11,586,200Z"/>
  </g>
  <g id="lining" class="cls-1">
    <path class="cls-2" d="M345,23.5c3.59,3,7.15,6.66,10.5,10,.73.73,1.18,2.43,2,3h2c.42.28,1,1.74,1.5,2h2.5c.86.54,1.51,2.44,2.5,3,5.64,3.19,11.44,4,20.5,4C387.57,47,388,47.08,388,50c-2.05,2.43-3.19,4.83-6,6.5-1.21.72-2.72.25-4,1-1.53.9-1.49,3-2.5,4.5L371,66c-6.14-1.34-12.36-5.18-17-8.5-2.57-1.84-4-5.07-8-5.5-.79,1.25-1.77,2.11-3,1.5-3.7-1.24-6.12-5.35-9-7.5s-5.94-3.39-9-5.5l-3-3c-2.73-1.59-5.5-.55-6-4.5,3.33-3.43,4.53-7.59,10-9C332.56,22.32,341.67,27.21,345,23.5Z"/>
    <path class="cls-2" d="M298,32c0,4.14,1.81,13.29,1.5,14-1.1,3.35-4.41,5.91-5.5,9-.17,1.5-.33,3-.5,4.5L290,62a35,35,0,0,0-4,8h2c1.89-1.54,4.59-2.07,6.5-3.5s2.85-4.7,5-5.5c12.9-4.77,30.17,1.37,38.5,6.5,2.31,1.42,2.93,4.6,6,5.5h7.5l3.5,3.5,3.5.5c1.9.75,3.58,3.33,5.5,4,3.09,1.07,5.92-.89,7.5,1.5,1.06,1.61.33,4.85,0,6.5-11.32,7.3-13.81,2.29-23.5-2.5-5.48-2.71-10.27-4.1-15.5-7-6.26-3.47-10.93-8.32-19-10.5-6.73-1.82-21.53,6.11-23.5,9-2.7,4-2.79,7.46-9,8-1.87-1.81-5.46-2.4-6.5-5-2.3-3-.66-5.48-2-9.5-2.55-7.67.33-11.29,2.5-16.5.17-1.67.33-3.33.5-5,.35-.85,2-2.19,2.5-3,.17-.83.33-1.67.5-2.5l6.5-6c2.35-2.46,3.59-6.65,8-7C294,32.17,296.25,32.05,298,32Z"/>
    <path class="cls-2" d="M91,173c-.47-3.36-3.61-9-6-10.5-1.44-.93-2.54-.7-3.5-2-2.47-3.34-4.23-7.53-7.5-10-1.34-1-6.76-3.56-7.5-4.5-1.82-2.32-1.5-6.36-3.5-8.5-1.42-1.52-3.6-2.43-5-4-2.09-2.35-4-5.15-6.5-7-.86-.63-2.4-.67-3-1.5l-1-4.5-2-1.5c-2-2.86-3-5.76-5-8.5l-9-9c-.87-.64-2.37-.67-3-1.5-.33-1.17-.67-2.33-1-3.5l-3-2.5c-1-1.36-1-3.17-2-4.5s-3.08-1.4-4-3c2.13-2.06-.83-6.1-1-11,3.06-2.18,4.63-7.28,8-9H28l1.5-2H34c8.12-2.81,22.71-1,28.5,2C70.65,70.79,81.29,83.29,88,90l6,6.5c3.14,2,4.68,4.55,7,6,2.63,1.64,4.85,2.4,7.5,4l1.5,2h2.5c3.37,1.47,7.1,4.64,10.5,6h3.5c1.06.48,3.1,2.47,4.5,3h3.5c2.25.82,6.24,2.2,8.5,3h5.5c14.45,5.15,38.44,5.2,53,0H206c.51-.2,2-1.78,2.5-2H211c.6-.25,2.9-1.77,3.5-2H218l1.5-2c1.56-.9,2.65-.2,4.5-1,3.13-1.35,5.17-4.27,9-5v1c-3.11,4.09-3.06,10.29-5.5,15-.95,1.84-3.78,3-4.5,5a8.91,8.91,0,0,0,.5,6.5,7.9,7.9,0,0,0,3.5,1c3.7-4.28,6.66-9.94,12.5-12H243c2.13-.75,5.06-3.52,7.5-4,2-.39,4,.92,6.5,1v1c-1.18,1.42-1.4,3.45-2.5,5l-3,2.5-1,3.5c-1.49,2.2-5.49,2.24-7,4.5l-1.5,4c-1.29,1-3.12.58-4,2-2.07,3.35-3.81,6.94-7,9-2.45,1.58-6.19.58-9,2-2,1-2.35,3.76-4,5-2.17,1.63-5.26,1.5-7.5,3-2.43,1.63-5.19,4.7-8,6l-4.5.5c-1.86,1.05-4.13,3.37-6,4.5-2.84,1.72-9.87,3.54-13,4.5-3.36,1-5.82-.07-9,1-2.76.93-6.31,3.51-9,4.5-2.45.91-27.55,1.4-31,.5s-8.77-3.06-12-4h-4a103.49,103.49,0,0,1-11-3.5C98.87,175.9,97.08,173.12,91,173Z"/>
  </g>
  <g id="nike" class="cls-1">
    <path class="cls-2" d="M366,160c7.16-.34,19.09,11.11,25.5,14.5,17.83,9.42,34.74,25.59,43,44.5,1.42,3.26.53,6.39,1.5,10,6,22.12-10.59,42.9-23,50.5-6.78,4.15-15.24,5.29-24,7.5-4.38,1.1-12.84-1-18.5-1-11.56,0-23.26.37-32.5-2h-6c-2.21-.56-6.79-1.43-9-2h-6c-42-10.66-86-17.94-126-30-4-1.21-7.32-.18-11-1.5-11.92-4.29-26.35-7.65-38-12-3.32-1.24-6.35-.19-10-1.5-2.6-.93-5.19-4.06-8-5h-5c-1.21-.4-2.81-2.05-4-2.5l-5-.5c-1.69-.63-3.24-2.82-5-3.5l-8-1c-4.69-1.75-9.81-4.86-14-7-2.8-1.43-5.9-1.19-8.5-2.5-2.4-1.21-4.52-3.49-7-4.5-4-1.62-8.22-2.06-12-4-2.63-1.35-4.53-4.85-7-6.5-5-3.31-16.18-6-15-13.5,16.11-9.63,29.7-4.78,44,2l6.5,1c1.82.8,4,2.86,6,3.5l5,.5c2.78,1.22,6.25,3.64,9.5,4.5H110c3.85,1,9.16,2.94,13,4,4.94,1.36,8.88.61,14,2,4.91,1.34,10.9,4.49,16,6l6,.5c1.13.49,2.67,2.09,4,2.5,5.14,1.6,9.48.6,15,2,12.4,3.15,27.72,4.95,40,8h6c12,3.1,29.73,3.89,42,7,2.65.67,5.53-.84,7.5-.5s6,1.51,8,2h9c18.83,4.59,51.66,5.4,65-4.5,5.19-3.85,10.34-11.28,12.5-18,1-3,.11-5.13,1-8.5.79-3,2.19-10.54,1-15C367.92,177.68,365.82,167.82,366,160Z"/>
  </g>
  <g id="vamp" class="cls-1">
    <path class="cls-2" d="M661,204.5c3.87.17,7.17,2,10,3h5.5c.5.19,2,1.8,2.5,2h3.5c.51.2,2,1.8,2.5,2,2.79,1.11,4.68-.05,7.5,1,7.18,2.67,17.19,3.42,24.5,6h8.5c8.62,3,21.6,1.9,30.5,5,3.09,1.08,8.33.07,11,1h13.5c4.74,2.11,14.53,1,21,1h12v1h6v1h3v1c1.68.93,3.15,0,5,1v1h2v1h2v1h2c1.84,1.27,2.87,4.41,4.5,6-.83,15.75-19.54,25-31,30.5l-8.5,1c-6.73,2.39-15.48,5.54-23,7.5h-4c-3.33.85-7.79,2.19-11,3h-5c-4,1-7.78,3-12,4l-10-1c-8.52,2-20.21,1.84-29,4h-14c-12.69,3.08-30-.18-43,3H625c-22.57,0-46.24,1.68-55.5-11.5-2.25-3.2-.52-7.94-1-12-1-8.14,1.4-21.28,1.5-32h1c2.5-1.33,4.13,1.33,6,2,2.89,1,5.24.32,8,1.5a107.36,107.36,0,0,0,12,4.5l7.5.5c1.32.36,2.82,1.66,4,2,20.36,5.8,38.33-7.43,46-18L658,224C660.66,218.2,660.71,211.5,661,204.5Z"/>
  </g>
  <g id="tip" class="cls-1">
    <path class="cls-2" d="M507,218c15.6,3.38,35.25,4.25,49,11,4.69,2.3,12.8.27,13.5,6.5-3.19,4.63-3.34,16.55-1.5,23V271c.4,1.34,2,2.87,2.5,4l1,5c.94,1.45,10.24,7.74,12,8.5l7,1c9,2.9,26.2,1.5,39,1.5,6.53,0,14.5.33,19.5-1h14.5a14.83,14.83,0,0,0,4.5-1h39c3.17-.81,8.73-.48,12.5-1.5,8.56-2.32,14.16-1.73,24.5-4.5h13c3-.78,7.53-1.19,11-2.5,1.2-.45,2.79-2.07,4-2.5l5-.5c5.55-2,13-3.72,18-6,14.79-6.8,41.75-11.07,41.5-32-3.26-.92-4.3-4.66-7.5-6-4.76-2-13.94-3.39-17-5.5a7.17,7.17,0,0,1-2-2.5h3.5c1.76,1.82,6.49.94,9,2,.53.22,2,1.77,2.5,2,4.64,2,8.41,2.54,12.5,5l5,4c.5.7-.15,1.5.5,2,8.9,6.75,15.84,17.21,20.5,28V271c2,4.17,6.42,10.19,4.5,18-3,12-14.21,18.14-25,22.5-2.12.86-4,3.1-6,4s-3.06.26-5,1c-5.91,2.24-13.22,5.44-19,8-8.71,3.86-18.66,4.24-28,7.5-1.71.6-3.36,2.44-5,3-4.45,1.53-9.67,1.93-14,3h-5c-22,6.4-48.77,9.16-72,15-6.6,1.66-14.35.89-20.5,2.5H657c-2.42.65-5.94,2.32-8.5,3H639c-7.68,2-18.76,1-26.5,3H596c-8.8,2.28-22.49,1-33,1-8.13,0-18.49.69-25-1-3.33-.87-7.56.6-9.5,1-1.73.35-2.56-.76-3.5-1H510.5c-2.27-.65-6.71-2.27-9.5-3H478.5c-6-1.6-14.38-2-23-2h-12c-10.54-2.76-23.28-2.58-34.5-5a5.38,5.38,0,0,0-1-1.5c2.39-11.64,9.47-22.24,14.5-31.5,5.87-10.8,11.3-17.35,19-26,1.29-1.45,1.64-3.64,3-5,1.05-1.06,3-1.37,4-2.5,2.4-2.82,4.29-6,7-8.5,3.72-3.4,8.23-5.64,12-9,4-3.56,7.21-8.21,11-12,3.46-3.46,7.75-6.35,11-10C496.4,237.74,500.12,225.36,507,218Z"/>
  </g>
  <g id="quarter_" data-name="quarter
" class="cls-1">
    <path class="cls-2" d="M505,217c-.48,7.09-4.48,11.44-7.5,16-2.76,4.17-4.69,8.87-8,12.5-4.58,5-10.2,9.2-15,14-2.48,2.48-4.42,5.64-7,8-3.72,3.4-8.23,5.64-12,9-3.14,2.8-5.14,7.5-8.5,10-.73.54-1.88.38-2.5,1-1.34,1.34-1.72,3.6-3,5-10.08,11-16.7,21.44-24,35.5-3.17,6.1-8.64,15.23-10,22.5-9.9.85-26.92-2.13-33.5-4h-7.5c-6.31-1.69-14-2.58-20.5-4-1.53-.33-2.46.8-4,.5-2.22-.43-7.52-1.84-10-2.5h-8.5c-29.85-7.91-65.68-8.11-99.5-11a56.76,56.76,0,0,1,3-12.5c2.25-6.6,1.6-15.13,4.5-21,.43-.88,2.09-1.89,2.5-3,.94-2.57.35-4.32,1.5-6.5.62-1.18,2.39-2.73,3-4,1.84-3.8,4.28-13.88,7.5-15.5,1-.61,10.11.85,12.5,1.5,10.93,3,23.23,4.7,34,8,7.76,2.38,16.5,3.1,24,5h6c14.86,3.69,31.29,4.5,50,4.5H393a125.14,125.14,0,0,0,22-7.5c13.29-5.94,29.26-36.63,19.5-57.5a73.05,73.05,0,0,1-3.5-8c-.79-2.56-.31-4.48-1.5-6.5-3.07-5.2-10.25-14.48-15-18-2.88-2.13-6.09-3.41-9-5.5-2.08-1.49-3.93-4.1-6-5.5-2.78-1.87-6.19-2.18-9-4C383.52,169,377,161.19,366,161c.07,2.89,1.14,4.15,1.5,6,.26,1.36-.86,2.29-.5,4,.79,3.79.87,8.36,2,13,.75,3.08,2.21,10.49,1,15-2.1,7.84-3.4,15.26-7.5,21-2.45,3.43-9.86,9.9-14,11.5h-6c-9.42,2.84-23.14,5.52-35,2.5-7.35-1.87-19.62,1.05-25-2.5-.4-.51-.18-.14-.5-1,.7-.86.8-2.08,1.5-3,1.44-1.89,4.66-2.46,6.5-4,1.14-.95,1.48-2.89,2.5-4,3.31-3.61,8.11-6.56,11-10.5,4.18-5.7,9.1-11.2,13-17,1-1.43.9-3.25,2-4.5.8-.91,2.35-1.42,3-2.5,2.89-4.79,4.06-10.29,7-15,.86-1.39,2.8-2.49,3.5-4,.17-1,.33-2,.5-3,2.9-5.95,7.17-12.47,10-18.5,2.06-4.39-.9-8.25,5.5-8.5,3.78,3.68,15.39,6.25,21,8,2.87.89,4.79.19,7,1.5l3,3c10.6,7,20,14.59,31,21,2.14,1.25,4.25,3.83,6.5,5,13,6.76,30.65,8.21,43.5,15,1.38.73,2.34,3,3.5,4,1.84,1.62,4.29,1.68,6.5,3,1,.58,1.65,2.27,2.5,3,3.41,2.92,7.76,4.43,11.5,7C490.5,211,493.61,216.94,505,217Z"/>
    <path class="cls-2" d="M407.5,350.5c-12.18.22-22.5-1.73-32-4H366c-5.38-1.36-12.33-2.71-18-4l-6.5.5c-2.35-.48-5.67-1.92-8-2.5H323c-9-2.43-20-3.69-30-6-6.61-1.52-13.73-.61-20-2h-7c-9.24-2.05-20.74-.45-30-2.5l-10-.5c-1.25.68-1.84,3.91-4,.5-1.71-2.64,2.52-13.29,3.5-16,1.14-3.16,2.9-6,4-8.5,1.28-2.89.3-5.9,1.5-8.5.68-1.49,2.85-2.56,3.5-4,.17-1.83.33-3.67.5-5.5.95-2.66,3.83-4.7,5-7.5,2.36-5.65,1.8-13.12,10-13,2.37,1.43,6.07.62,9,1.5,7.56,2.28,16.21,3.15,24.5,5.5,23.34,6.6,51.09,12,80.5,12h30.5c4.49-1.13,18.08-5.08,21-7.5.84-.7,1.21-2.21,2-3,2.75-2.75,6.8-5.32,9-8.5,1.6-2.31,2.19-4.9,4-7l1.5-.5c5.17-7.3,6.48-25.22,2.5-35-2.21-5.43-2.07-10.85-5-15.5-.66-1.05-2.26-1.58-3-2.5-1.45-1.8-1.5-4.31-3-6-3.25-3.65-7.54-6.54-11-10-2.09-2.09-3.71-5.16-6-7-5.24-4.2-11.33-6.77-17-10.5-7.12-4.69-11.66-11.9-23.5-12,.28,7.4,2.11,14.81,3.5,20.5-.17,1-.33,2-.5,3,1.36,3.11.79,4.72,1.5,8.5.84,4.43-1.64,15.32-3,18.5l-2,2c-1.24,2-1.25,4.12-2.5,6-2.8,4.19-9.48,10.27-14.5,12-10.66,3.69-18.45,3.5-32,3.5h-15a103.38,103.38,0,0,0-23.5-3v-2c3-.57,2.14-1.54,5-.5,1.21-4.48,15.2-15.73,19.5-20,5.05-5,10.81-11.33,14.5-17.5.72-1.21.25-2.72,1-4l4-3c2.52-3.64,2.95-8.43,5-12.5,1.35-2.68,4.43-4.21,5.5-7V163L343,144.5c1.54-3.7-.89-7.45,4-8,1.4-.63,6.77,3.15,9,4,4.32,1.65,9.28,2.84,13.5,4l5.5.5c2.42,1,9.18,7.57,12,9.5,6,4.13,11.92,8.65,18,12.5,2,1.27,4.11,1.64,6,3,2.49,1.79,4.47,4.65,7.5,6,11.58,5.14,25.77,6.38,37.5,11.5,4.18,1.83,4.73,4.49,7.5,6.5,1.82,1.32,4.6,1.2,6.5,2.5l3,4,12,6.5c3,2.12,5.34,5.54,8.5,7.5,3,1.85,8.7,1.23,11.5,3-1.43,2.26-1.27,5.72-2.5,8-1.7,3.15-4.64,6-6.5,9-2.11,3.39-3.19,6.89-5.5,10-3.24,4.37-8.63,8.2-13,11.5L466,269c-3.06,2.27-6.44,3.73-9.5,6-2.7,2-4,5.25-6,8-1.65,2.26-5.42,2.89-7,5l-1.5,4c-3.31,4.9-8.53,9.07-12,14-4.34,6.17-7,12.87-11,19.5C414.8,332.42,408.37,340.92,407.5,350.5Z"/>
  </g>
  <g id="foxing" class="cls-1">
    <path class="cls-2" d="M300,111c7.49,1.43,14.26,7.32,20,11,3.7,2.37,6.51.74,9,1.5,2.81.86,5.69,4,8,5.5,3.81,2.52,7.7,2.94,8,9-1.84,1.89-1.17,3.84-2.5,6.5-1.06,2.1-3.5,4.74-4.5,7l-1.5,5.5-2,1.5c-1.59,2.5-1.59,5.44-3,8-1.17,2.13-3.74,4-5,6-.77,1.21-.3,2.65-1,4-.58,1.12-2.43,2.37-3,3.5-.33,1.67-.67,3.33-1,5l-3,2.5c-3.43,4.81-5.56,9.69-9,14.5l-5,4.5A68.21,68.21,0,0,1,297,215c-4.74,4.74-14.22,16.29-22.5,16.5-4.2-3.51-16.47-1.87-23-3.5-14.17-3.53-31.5-3.49-45-7-4.24-1.1-7.5.16-12-1-9.58-2.47-20.66-4.67-30-7-7.61-1.89-15-1-22-3.5-5.65-2-13-4.85-19-7-11.24-4-23.56-4.29-34-9-4-1.82-8.59-5-12.5-7-2.63-1.35-5.61-.72-8.5-2-3.2-1.41-5.81-3.55-9.5-5l.5-1.5c4.47-1.19,13.7-5.2,18-7.5,3.76-2,3.54-5.76,9.5-6,12.22,12,32.62,19.5,56.5,19.5,8.27,0,15.62-.54,21.5-2l6.5-.5c5.53-2.28,11.54-4.28,17-7,2-1,4.19-3.2,6-4,4-1.77,8.61-1.69,12-4,1.72-1.17,2.74-3.82,4.5-5s3.67-1,5.5-2l4-4c1.94-1.41,4.47-1.53,6.5-3,.81-.59,1.18-2.4,2-3,1.41-1,3.27-.84,4.5-2A78.48,78.48,0,0,1,242,140l4-1.5c1.62-1.27,1.85-5.26,3-7,1.87-2.82,5.26-3.62,7.5-6,1.55-1.65,4.36-7.07,6-8l5.5-.5c3.69-.94,8.29-2.61,12-3.5l8,.5c1.53-.37,4.08-1.62,5.5-2C296.16,111.28,298.22,112.25,300,111Z"/>
    <path class="cls-2" d="M30.5,190c5.68.41,12.21,7.81,16.5,10.5,10.8,6.76,24,12.24,35.5,18,2.38,1.2,5,.81,7.5,2,4.59,2.24,11,5.14,16,7,3.38,1.24,6.21.87,9.5,2,5.45,1.87,11.9,5.41,17.5,7.5,2.78,1,5.38,0,8.5,1,12.51,4,27.08,8.95,40,12.5,3.29.9,5.55.06,9,1,11.07,3,24,6.63,35,10,4.57,1.41,17.59,2.43,19.5,5.5-1.79,2.27-1.68,5.07-3,8-.46,1-2,2.06-2.5,3l-1,4.5c-.7,1.46-2.31,4-3,5.5-.33,1.83-.67,3.67-1,5.5-4.32,8.56-12.28,25.16-12,36a6.56,6.56,0,0,1-4,1c-1.87-1.37-4.18-.17-7-1-5.9-1.74-15.39.74-22-1a40.52,40.52,0,0,0-9.5-1H168.5a68.18,68.18,0,0,0-16.5-2c-3,0-4.57,1.71-7.5,1-4.43-1.08-11.56-1-17.5-1h-7.5c-5.55-1.47-14.8.65-21-1a31.44,31.44,0,0,0-8-1h-14c-2.34-.63-5.74-2.4-7.5-3H63.5l-7.5-2c-4-1.07-6.55.07-10.5-1-9.32-2.53-27.38-5.23-28-15.5.45-.88,1.09-7.2.5-9.5-2-7.74-.89-19.43-3-27.5V245.5c0-9.8,0-17.31,2-24.5v-6.5c.67-2.28,2.92-4.42,4-6.5C24.41,201.44,26.18,195.34,30.5,190Z"/>
  </g>
  <g id="shadow_Image" data-name="shadow Image">
    <image id="shadow_Image-2" data-name="shadow Image" width="1792" height="923" transform="translate(0 0.5) scale(0.5)" xlink:href="shoe1.png"/>
  </g>
</svg>
