<svg xmlns="http://www.w3.org/2000/svg" xmlns:xlink="http://www.w3.org/1999/xlink" viewBox="0 0 896 462.5">
  <defs>
    <style>
      .cls-1 {
        isolation: isolate;
      }

      .cls-2 {
        fill: white;
        fill-rule: evenodd;
      }
    </style>
  </defs>
  <g id="quarter" class="cls-1">
    <path class="cls-2" d="M365,161c.29,8.23,3.15,18.38,5,26,1.7,7-.56,16.19-2,21-2.07,6.91-3.8,13.34-8.5,17.5a36.67,36.67,0,0,1-6.5,4h-4l-2,2c-2.7,1.52-7.13,2.76-10,3.5-5,1.28-9.77.54-14,0-3.32-.42-9.22,2.19-14,1-2.55-.63-5.81-2.42-8-3-3.23-.86-4.73,1.74-8,1a132.87,132.87,0,0,0-15-2v-1.5c2.22-1.46,3.45-4.09,5.5-5.5,3-2.07,5.94-2.92,9-5,2.63-1.78,5.07-4.9,7-7.5l10-9.5c1.35-1.89,3.79-5.09,4.5-7,.56-1.51-.18-2.84.5-4,.8-1.37,2.91-2.42,3.5-4s-.23-2.86.5-4l4-3c1.83-2.42,1.44-4.94,3-8l5-5c.33-1.83.67-3.67,1-5.5l3-2.5c1.32-1.79,5.93-10.14,6.5-12v-3.5c.55-1.82,2.5-3.67,3-5.5s-1.29-3,0-4.5h1c.54-.38.47-.3,1.5-.5,1.61,1.91,3.06,1.24,5.5,2.5,1.67.86,2.47,3.6,4,4.5,3,1.77,5.84.73,9.5,2,.79.27,1.71,1.73,2.5,2h7l4,4.5c1.37,1,3.12,1,4.5,2l4,4c4.94,3.52,10.63,5.46,15.5,9l3.5,4.5c2.27,1.77,5.25,3.51,7.5,5,7.61,5,18.93,7.3,28,10.5l8,1c1.62.7,3.58,2.59,5,3.5,1.6,1,3.15.53,5,1.5,2.36,1.24,4.05,4.64,6.5,6,2.24,1.24,4.23,1.4,6,3,1.38,1.25,5.11,4.14,6,5.5s.08,2.1,1.5,3c1.76-.84,4.39,1,6,2s3.37,2.93,5,4c3.67,2.41,10.49,2.51,11,8-1.35,2.3.61,4.67-.5,7l-1.5,1c-1.49,2.33-2,4.75-3.5,7-9.49,13.89-23.29,23.8-35,35.5-5.17,5.16-9.84,10.83-15,16-2.46,2.46-5.7,4.4-8,7-1.45,1.64-1.55,4.36-3,6-1,1.18-2.95,1.82-4,3-2.69,3-4.3,7.79-7,11-1.14,1.36-1.05,2.88-2,4.5-3.92,6.69-8.54,14.27-11.5,22-1.62,4.24-1.36,9.89-6.5,10.5-1.44-1.11-3.58-2.11-5-3V349H388c-.82-.26-2.18-1.74-3-2H370c-1.32-.35-2.82-1.66-4-2H346c-1.51-.38-3.49-1.62-5-2h-9c-1.51-.38-3.49-1.62-5-2h-6c-.82-.26-2.18-1.74-3-2H308c-1.83-.45-5.17-1.55-7-2h-7c-7.18-1.78-16-4-23-6H257c-4.32-.06-8.83-2.24-14-1a55.15,55.15,0,0,1-19,.5,5.38,5.38,0,0,0-1-1.5c.45-2.42.38-7.42,1.5-10,.49-1.13,2.09-2.67,2.5-4,1.32-4.27,1-7.17,2.5-11,.9-2.27,3.73-3.82,4.5-6v-5a38,38,0,0,1,7.5-14.5c2.33-2.79,1.93-9.54,5.5-11,2.52-1.51,8,1.74,11.5,2,5.92.44,11,2.62,16,4,5.48,1.5,11,2,16,3.5,8.35,2.56,17.82,3.43,26,5.5h6c14.79,3.67,31.61,4,50,4,6.06,0,11.58,2.61,18,1,7.75-1.94,15-3.23,21.5-6.5,5.39-2.69,7-9,11.5-12.5,1.38-1.06,3.74-1.29,5-2.5,3.18-3.06,3.07-9.68,5-14,13.5-30.28-14.42-56.26-30-69.5-3.68-3.12-8.37-4.32-12.5-7-1.29-.84-2.71-2.65-4-3.5-2.93-1.93-6-2.59-9-4.5C373.4,164.55,373.29,161,365,161Z"/>
  </g>
  <g id="backtab" class="cls-1">
    <path class="cls-2" d="M14,306a95.9,95.9,0,0,0-2.5-26c-1.52-6.32.25-14.8-1-20V249.5c0-11.28.57-22,1.5-31.5.18-1.81-2.07-2.82-2.5-4-.94-2.58.57-9.29,0-12-.64-3,1.17-12.66,2-14.5v-9c0-8.19-.58-14.43,2-20v-20a2.36,2.36,0,0,1-1-3h1v-22c1.51-3.41-.54-10.52,1-14a29.76,29.76,0,0,0,2-11L18,87c.88.32.49.1,1,.5L23,89c.17,1.17.33,2.33.5,3.5l4,4,1.5,4c1.46,1.26,4,1.18,5.5,2.5.61.55.49,1.81,1,2.5a77.06,77.06,0,0,0,8,9.5l5,3c1.29,1.68.07,2.91.5,4.5.32,1.18,2,1.23,2.5,2,.79,1.11.27,2.5,1,3.5,1.37,1.87,10.91,7.28,11.5,8.5V141a25.65,25.65,0,0,0,2.5,5l6.5,3.5c2.73,2,11.36,12.37,11.5,16.5-1.73,1.18-2.52,3.09-4.5,4-1.4.8-2.94-.54-3.5,0-1.3.94-1.85,2.48-3,3.5-2.11,1.86-9.77,5-12.5,6l-6.5,1c-1.51.69-4.2,3.12-5.5,3.5-.84.24-2.48-.91-3-1-2.16-.36-5.6,1.53-7,2.5-1.61,1.11-2.12,3.62-3.5,5-3.08,3.08-7.62,4.72-10,8.5-3.4,5.39-3.25,12-9,15,1,5.44-.51,10-1.5,14v38c1.27,5.27,1.38,13.93,2.5,19v9c.91,4.19,2.35,7.2,2.5,11.5H19C18,306.17,15.75,306.05,14,306Z"/>
  </g>
  <g id="eyestay" class="cls-1">
    <path class="cls-2" d="M388,46.5c1.08.53,2.91.25,4.5,1l2.5,3c4,2,8.19.67,11.5,3.5H406c-2.37,2.16-4.84,3.65-7,6-4.35-.9-7.63-2.54-12-3.5a5.38,5.38,0,0,0-1-1.5C386.7,51.78,387.91,50.58,388,46.5ZM407,119l5.5-5c1.84-2.81,2.24-5.27,4.5-7.5-.51-1.92-4.71-4.45-6.5-5-.92-4.17-.16-10.21-2-13.5a16.54,16.54,0,0,0-7-1L399,89.5c-.55,2.11,1.73,4.47,2,6q-1.25,5.5-2.5,11c-1.13,2-4.35,3.35-6,5C389,115,385.19,119.24,381,122l-3,1c-1.59,1.09-1.84,2.73-4,3.5-1.14.77-4.06.57-6,.5-1.56-1.48-3.19-1.65-4-4-.9-1.74.79-3.65.5-6-.14-1.13.67-6.16,0-8-2.09-5.75-1.8-7.23,1-12,1.13-1.93,1-3.56,2.5-5V91c-2.81.1-4.89,2-8,1-1.2-.37-2.82-2-4-2.5l-5.5-1c-4.89-2.33-9.86-5.58-14.5-8-3.25-1.69-6.3-2.22-9.5-4-4.05-2.24-12.48-10.32-21-7.5-.79.26-1.71,1.73-2.5,2h-3.5c-.74.33-1.38,2-2,2.5-1.81,1.5-3.5.32-6,1.5-2.12,1-3.76,5.8-5.5,7.5.35,1.86.73,1.77,1.5,3L301,85c1.85-.62,4.45-3.34,8.5-2,.79.26,1.71,1.74,2.5,2h4.5c1.94.57,4.22,2.62,5.5,4,5-.13,4.95.94,7,3.5-.28,10.31-11,11.81-17.5,16L309,111c-1.79.57-4.18-.53-6,0v2c8.49,1.58,12.27,8.57,19,11.5,2.53,1.1,5.06-.54,6.5,0,.56.21,3,1.47,4,2,2.23,1.21,4.35,3.77,6.5,5,5.1,2.93,10.28,3.81,15,7,1.89,1.28,3.52,3.67,6,4.5h5c.83.28,2.17,1.73,3,2,2.27.75,5.47-.45,6.5,0,3.05.89,1.63,2.83,3.5,4.5.91.81,2.39.39,3.5,1,1.64.91,3,2.94,4.5,4,5,3.57,10.94,6,15.5,10,4.3,3.8,9.4,8.08,14.5,11,3.12,1.78,8.78,3.63,12,5l5,.5c3.17,1,7.58,3.11,11,4,5,1.3,9.65.55,13.5,3,6.25,4,11.21,9.73,17,14,3.47,2.56,7.6,4,11,6.5,3.8,2.84,7.05,6.61,12,8.5a64.83,64.83,0,0,0,7,2h7c1.51.38,3.49,1.61,5,2h7c.82.26,2.18,1.73,3,2h8c1.18.34,2.68,1.65,4,2l8,.5c3.18,1.14,6.85,3.55,10,4.5,3.67,1.11,8.77.41,12,2,.92.45,1.52,2.46,2.5,3,3.8,2.09,7.82,1.5,12,3.5a85.34,85.34,0,0,0,14.5,5h5c2.14.57,4,2.42,6,3,9.41,2.78,17.86-1,25-3.5l4-.5c3.5-1.34,15-11.49,17-14.5l1-3.5c.9-1,2.93-1.12,3.5-2.5v-3.5c.35-1.21,1.72-3.28,2-4.5.49-2.13-1.15-4,0-6-.52-7.14-9.66-8.37-15.5-10.5H638a17.55,17.55,0,0,1-4.5-2.5v-1s-2.58.92-3.5.5c-2.09-1-3.08-3.48-6-4-.27,1.9-4.6,15.25-5.5,16.5s-3.2,1.38-4,2.5c-.33,1.5-.67,3-1,4.5-1.64,2.26-5.73,2.78-8,4.5s-3.93,6.37-5,9c-8.44,3.53-15.08-2.4-17-8.5-2.43-4,.41-11.76,1.5-14.5,1-2.48,3.41-3.88,4.5-6-1.78-4.69,5-17.81,7-22,1.19-2.54-.58-6.06.5-8-2.52-5.22-11.22-5.89-12.5-12C580.87,158.28,572.19,168,574,175c1,3.93,6.07,6.84,4,13-1,2.91-4,5.21-5.5,7.5-.78,1.2-.3,2.65-1,4-1.19,2.27-4.87,5.15-7,6.5-1.42.9-4,.57-5.5,1.5-3.08-.18-12.63-10.77-13.5-13.5-3-4.53-.17-18.59,2.5-22-.36-2.25-1.17-2.84-2-4.5-1.73-.31-6.53-.08-8-1l-1.5-.5c.16-3.2,1.76-4.46,3.5-6v-1c-4.46,0-7.36-.75-10.5-.5-.43,1.81-1.91,3.89-2,5.5-.07,1.23,1.27,3.59,1.5,4.5.87,3.4-.16,16.34-1,18.5-.57,1.46-2.85,1.74-3.5,3-.73,1.41-.06,2.69,0,3.5L522,196l-1.5,5c-2,.06-4.84.27-6-.5-3.28-.36-3.5-1.46-5-3.5-5.21-7.09-4.43-11.2-4.5-21.5v-9c-.39-1.42-1.62-4-2-5.5-.57-2.28.69-5.42-.5-7-2.36-3.13-6.57.57-8,1.5-.92,4.32-1.51,10.76-3.5,14l-4.5,1.5c-10.84.32-14.49-12.36-14.5-23,0-3.37-1.35-8.94,0-11-.5-2.52-1.93-3.09-3-5-7,.28-4.7,7.28-6.5,11.5L461,145c-1.64,3.11-2.26,7-4.5,9.5-1.36,1.54-3.61,2.48-5,4s-2.2,4.16-4,5.5c-1.57,1.17-3.62,1.65-5,3-5.63-.14-6.88-3.06-10-5.5-1.49-12.61,1-23.43,7.5-29.5.09-4.54-.41-6.11-2-8.5-5.37.13-13.12,9.09-15,13-7.41,1.54-13.36,4.16-20.5.5-.89-4.92,1.38-6.67,2.5-10v-8Zm68-17c-.39.25-1.58-.08-2.5.5-1.57,1.25-2.1,3.58-3.5,5a7.8,7.8,0,0,0,.5,2.5c3.75-.34,7.84-5.24,12-2.5a9,9,0,0,0,3-.5,10.49,10.49,0,0,1,1.5-4c-1.26-.85-8.74-2.38-10.5-2.5C475.3,101.53,475.38,101.46,475,102Zm54,38a5.41,5.41,0,0,0,.5,3l.5,1.5c2.24.44,6.82-.4,9.5.5.79.26,1.71,1.73,2.5,2h11.5c1.21.41,1.85,1.56,3.5,2l6-6,.5-.5c-4.33-1.35-9.28-5-14-7-2.33-1-4,0-6.5-1-2.82-1.07-3.85-2.95-8-3C533.23,134.31,531.34,137.7,529,140Z"/>
  </g>
  <g id="sole" class="cls-1">
    <path class="cls-2" d="M727,432.5c-.17.83-.33,1.67-.5,2.5-2.57,1.64-3.86,2.55-8.5,2.5-1.31-2.15-2.35-3.05-6-3-.61,4.9-4.22,5.28-10,5-1.13-1.85-2-2.89-5-3-.17,1.17-.33,2.33-.5,3.5-2.15,1.34-4.54,1.58-8.5,1.5-1.4-2.33-2.93-3.13-6-2.5-.26,5.12-4.07,4.79-9.5,4.5-.73-1.05-1.71-2-2.5-3h-4V444c-2.18.74-6,.54-9,.5-1.25-1.87-2.73-2.09-6-2-.17.83-.33,1.67-.5,2.5-2.15,1.34-4.54,1.58-8.5,1.5-1.49-2.43-2.82-3.13-7-3V447a18.4,18.4,0,0,1-5.5.5c-2.29-2.19-4.87-3.06-9.5-3V448c-1.56.54-4.21.53-6.5.5-.8-1-.86-.26-2-1-3.19-2.06-.93-3.16-7.5-3a12.34,12.34,0,0,0-.5,4h-9V446a20.55,20.55,0,0,0-6-.5l-.5.5c-.17,1.17-.33,2.33-.5,3.5h-7c-1.7-2.65-2.24-4.14-7-4l-.5.5c-.17,1.17-.33,2.33-.5,3.5h-9V446a18.4,18.4,0,0,0-5.5-.5c-.81,2.16-1.2,3.28-3.5,4-1.42-1.54-2.73-.06-5-1-2.63-1.09-2.23-3-7-3-1.65,3.44-4.8,3.21-10,3V446a14.47,14.47,0,0,0-4.5-.5,9,9,0,0,0-.5,3h-10V446a18.4,18.4,0,0,0-5.5-.5,9,9,0,0,0-.5,3h-8c-1.34-2.31-2.08-3.11-6-3-1.55,3.25-4.05,3.21-9,3-1.53-2.21-3.06-3.08-7-3-1.44,3-3.34,3.2-8,3-1.82-2.82-2.42-4.17-7.5-4a12.34,12.34,0,0,0-.5,4h-7c-1.82-2.82-2.42-4.17-7.5-4a9,9,0,0,0-.5,3h-6c-1.89-2.64-3.7-4.1-8.5-4a9,9,0,0,0-.5,3h-7c-1.26-1.89-2.47-3.75-5.5-4-1.14,3.37-4.89,3.2-9.5,3-1.62-2.34-3.3-3.11-7.5-3a9,9,0,0,0-.5,3h-7c-1.58-2.46-2.08-4.1-6.5-4-1,2.79-1.55,4-5.5,4-1.07-1.23-1.36-.16-3-1-2.25-1.16-.88-2.89-5-3-1.88,2.7-4.15,3.15-9,3-1.54-2.14-3.12-3.07-7-3-2,2.91-4.8,3.16-10,3a6.92,6.92,0,0,0-1-3.5c-1.08-.72-3.65-.56-5.5-.5-1.12,2.83-2.54,4-6.5,4-2-2.9-3.22-4.17-8.5-4a9,9,0,0,0-.5,3h-7c-1.33-2.08-1.9-3.95-5.5-4-1.19,3.58-4.44,4.2-9.5,4-1.62-2.34-3.3-3.11-7.5-3-.41,1.25-.37,2.32-1.5,3-1.17-1.26-10.47-3-13.5-3a9,9,0,0,0-.5,3h-7c-1.62-2.34-3.3-3.11-7.5-3a9,9,0,0,0-.5,3h-9V441a18.4,18.4,0,0,0-5.5-.5c-1.39,3.46-3.48,4.18-8.5,4-1.58-2.46-2.08-4.1-6.5-4-1.43,3.81-3,4.24-8.5,4-1.5-2.28-2.48-4-6.5-4-1.43,3.81-3,4.24-8.5,4-1.33-1.93-2.66-3-6-3-1.54,3.14-5.36,4.08-10,4a6.92,6.92,0,0,0-1-3.5c-.92-.62-2.85-.54-4.5-.5a12.34,12.34,0,0,0-.5,4h-7c-1.73-2.57-2.84-4.12-7.5-4-1.43,3.81-3,4.24-8.5,4-1.33-1.93-2.66-3-6-3-1.71,2.47-3.56,3.13-8,3-1.62-2.34-3.3-3.11-7.5-3a9,9,0,0,0-.5,3h-9a6.92,6.92,0,0,0-1-3.5c-.92-.62-2.85-.54-4.5-.5a9,9,0,0,0-.5,3h-7c-1.42-2.45-2.33-3.15-6.5-3a9,9,0,0,0-.5,3h-7c-1.53-2.21-3.06-3.08-7-3-1.3,1.77-2.77,2.08-6,2-1.61-2.34-3.34-4.05-7.5-4a9,9,0,0,0-.5,3c-5.8.06-4.87-.78-8-2-2.12-.83-4.24.76-5,1,0,0-9.38-.77-10-1-.17-.33-.33-.67-.5-1H68v-1H62.5c-.56-.2-2.94-1.8-3.5-2H54.5c-.59-.22-2.91-1.76-3.5-2H48.5C43,432,31.07,425.06,28,420.5v-2H27V417c-.59-.95-2.35-1.62-3-2.5V413c-1.24-1.9-3.87-3.35-5-5.5-1.25-2.37,1.13-3.82,0-6.5-.39-.93-2.12-1.68-2.5-3-1.26-4.33,1.9-7.18,1-11-1.12-4.76-7.2-7.78-5-15.5.34-1.18,1.66-2.67,2-4,1-3.8-1.21-15.21-2-18.5v-9c-.81-3.4,0-9.49-1-14-.2-.85-1.26-2.13-1-3.5.46-2.4,1.28-2.08,1-4.5-.63-5.4-.43-10.31,4-11,.84.57,2.45.53,4,.5,7.44,11,29.54,10.09,44,14H72c15.42,4.13,33.08,3.5,52.5,3.5,10.77,0,17.52,2.06,26,0,7.14-1.74,15.77,2.06,20.5,2.5,6.08.57,14.66-.07,20,1l8.5-.5c.42.14,1.58,1.36,2,1.5,4.88,1.58,12.29.74,17,2,2.84.76,6-.58,7.5-1,4.23-1.14,9.08-.15,12,.5,4.21.94,8.74-2.33,14-1s10.63,2.05,16,3c3.33.59,8.86-1.51,13-.5,2.35.57,4.83,1.94,7,2.5l8-.5c1.66.4,4.34,1.6,6,2a6.41,6.41,0,0,0,3-.5s13.48.84,14,1c3,.91,8,2.53,11,3.5l13,.5c1,.32,3.34,1.68,4.5,2,5.23,1.44,9.61-.6,14.5,1,1.74.57,4.13,2.11,6.5,2.5,2.84.46,9.44-1.33,13.5,0,1.32.43,3,2.08,4.5,2.5l8-.5L397,351h6.5c2.44.68,5.84,1.78,9,2.5L431,353c.92.3,2.44,1.7,3.5,2,3.9,1.11,15.53.32,18.5.5h11c6.28,1.68,14.08,1.53,20.5,3H501c1.95.54,4.86,2.05,7,2.5l4.5-.5,23.5.5c5.23,1.17,10.13-.42,15.5,1,.89.23,1.53,1,3,1,3.11.09,6.13-2.13,10-1,4.25,1.24,4.27-.75,8,0,8.86,1.78,18.13.17,25.5-1.5,1.71-.39,5.55.68,7,1,2.34.52,3.9-.7,5-1l7,.5c.8-.2,2.79-1.35,3.5-1.5,2.32-.48,6.45,1.5,9.5.5,1.32-.43,3-2.08,4.5-2.5,3-.86,6.34,1.19,8,1,.54-.06,2.08-1.37,2.5-1.5h6.5c1.1-.35,3.16-1.66,4.5-2,4-1,7.17.68,10.5,0,2.79-.57,7.25-1.81,11-1,1.1.24,4.13,1,6,.5,11-3,23.5-4,34.5-7,4-1.09,6.78.05,10.5-1,10.22-2.89,22.83-5.15,32.5-8h5.5c3.09-.85,7.77-2.2,10.5-3h3.5c2.89-1.05,5.07-4.44,8-5.5,6.09-2.21,13.26-1.27,19.5-3.5,3.33-1.19,9.84-3.14,13-5,2.86-1.68,6.78-4.45,10-5.5h4c10.81-3.18,25.69-11.69,30.5-21,1.41-2.72,3.9-7.65,2.5-13-.61-2.35-1.88-4.88-2.5-7.5H867l8.5,8.5a56.62,56.62,0,0,1,3.5,4.5c.33,1.83.67,3.67,1,5.5.57,1.3,2.49,2.72,3,4,2,4.89,0,10.1,1.5,16,.51,2,2.4,3.57,3,5q.25,7,.5,14c0,17,.13,24.5-7,34.5-1.2,1.68-1,2.94-2,5-1.48,3-4.89,6.25-7,9-1.25,1.63-2.73,1.29-4.5,2.5l-2,3.5c-2.78,2.35-6,3.87-9,6l-4,4c-1.33.92-2.21.28-4,1-1.28.52-2.32,2.39-3.5,3-2.68,1.39-5.27,1.1-8,2.5-1.59.82-3,3.19-4.5,4l-5.5,1c-1,.69-1.81,3-3,3.5l-6,.5c-.6.39-1.3,2.19-2,2.5h-4.5c-1.65.49-3.21,2.41-4.5,3-3.59,1.65-6.49.77-10.5,2-1,.29-1.86,1.73-2.5,2l-6,.5c-1.32.71-2.94,2.89-5,3.5s-2-1.18-3.5-1c-1.71.2-2.33,2.48-3.5,3l-5-.5c-1.3.23-2.93,2.1-4,2.5-4.2,1.58-6.91-2.57-10.5-1l-2.5,3h-4.5c-4,1.37-5,.08-8.5-.5-.57,3.62-3.18,3.73-7.5,3.5-.67.81-.32.56-1.5,1A5.41,5.41,0,0,0,727,432.5Z"/>
  </g>
  <g id="tongue" class="cls-1">
    <path class="cls-2" d="M304.5,29v1.5c2.32.27,2.61,1.33,4,2H313l2,2c2.32,1.27,4.78,1.58,7,3,8.74,5.57,16.35,12.8,23.5,20,3.17,3.19,8.25,7.71,9.5,12.5-.33,1.83-.67,3.67-1,5.5-17.66-2.4-25.76-20.87-49-14.5h-3.5c-2.21.77-4.19,3.49-6,4.5h-2c-.33.67-.67,1.33-1,2-1.7,1.12-3.85,1.59-5.5,2.5V69a16.31,16.31,0,0,0,3-4V62.5c.79-1.51,3.46-1.27,4.5-2.5,1.39-1.66,5.2-11.67,5.5-14,.38-3-1.95-5.87-2-10-2.63-1.86-3.69-4.57-7-4.5-.44.94-.5-1-.5-1,1.57-.94,4.16-2.2,5.5-3.5A26.93,26.93,0,0,0,304.5,29Zm-18,43a1.46,1.46,0,0,0,0-2Zm-.5,1h.5c-.32-.86-.1-.49-.5-1Z"/>
  </g>
  <g id="lace" class="cls-1">
    <path class="cls-2" d="M303.5,12.5c13.35-.25,27-.63,33,6.5H336c-3.61,5.47-6.07,1.34-11,2s-5.57,5.52-12.5,5.5c-1.23-2-15.17-.11-17.5,1-1,.46-2.64,2.21-3.5,2.5s-2.88-1.23-4.5-.5l-1.5,2c-1.86,1.09-3.66.89-5.5,2l-2.5,3H275c-3.39,1.73-5.42,6.12-8.5,8-2,1.25-5,1.34-6,3.5v7c1.79,1.73,0,4.25,1,7,.18.48,1.82,2,2,2.5V70c.73,1.65,8,10.55,9.5,11.5l4.5,1L281,86c1.64.48,2.65-.78,3.5-1H299c2.23-.56,4.68-2.76,8-2a141.89,141.89,0,0,1,21,6.5c.77,1.6,2.19,5.09,1.5,6.5-2,5.48-9.13,7.65-14,10.5-2.4,1.41-5.38,4.63-8,5.5-1.75.58-2-1.27-3.5-1-.76.13-2.25,1.75-3,2-4.46,1.52-8.54.48-13,2-.82.28-2.17,1.73-3,2H269.5c-6.28,1.67-12.59,4.28-18.5,6h-5.5l-2.5,2.5c-1.93,1.27-3.43.55-6,1.5-2.06.76-4.5,3.17-6.5,4.5-1.63,1.08-2.92,3.35-4.5,3-1.07-.62-2.06-2.85-2.5-4,2.74-1.92,7.33-11,8.5-14.5.9-2.71.27-5.86,1-7,1.61-2.45,2.44-1.07,4.5-2.5.77-.53,1.23-2.47,2-3,1.26-.87,2.74-.12,4-1,.83-.58,2.17-3.42,3-4,1.26-.87,2.74-.12,4-1,1.83-1.28,3.57-4.22,5-6h1v-5c-1.32-.79-3.35-4.69-4-6s-2.1-16.49-1-19h1v-5l2-2v-2c.22-.32,1.78-.68,2-1v-2h1v-3l2-2v-3c.17-.29,1.81-.71,2-1,.87-1.3.12-2.71,1-4,.23-.33,1.77-.67,2-1v-2c1.63-2.3,5-4,7-6,1.38-1.38,2.44-3.89,4-5h2c.72-.51,1.25-2.57,2-3,2.23-1.3,4.87.24,7-1,.23-.14.77-1.87,1-2h4v-1h3l2-2C299.09,12.27,302,14.69,303.5,12.5Zm127,24c-8.31,3.26-12.49,11.84-21,15v2c-6.3.24-6.29,4.43-10.5,6-1.7.83-9.13-1.69-11-3-2.17-.84-1.74-1.48-1.5-3.5-1.86,1.2-3.49,3-5.5,4l-3,.5c-3.22,1.77-2.75,6.6-7,8-2.15,1-5.16-1.54-7-2.5-5.52-2.88-12.67-6-16-11a4.29,4.29,0,0,0-2.5.5c-.34.38-.66,1.11-1,1.5.56,4.55,10,12.74,12,18,.69,1.78.55,6.09,2,7h3c.79.3,1.7,1.73,2.5,2,1.84.62,4.18-.31,5.5.5,1.49.58,1.4,1.17,2.5,2V88c-2.82,2.54-6.53,4.64-8,8.5-1.88,5-.72,13.26,0,18,.38,2.47-2,5-1,8.5l2,3.5a53.33,53.33,0,0,0,10,.5c6-6.35,19.77-14.28,23.5-21.5.61-1.18,2.86-9.12,2.5-10.5-.53-2-3.11-4.31-2-6.5.61-1.14,1.25-1.07,2-2a13.08,13.08,0,0,1,7.5,2c.69.9,1.33,6.63,0,8.5,0,4.74,4.7,7.25,8.5,8-.61,4.55-6.84,10.43-9.5,13.5-1.92,2.22-1.27,5.42-2.5,8.5-.54,1.35-2.54,2.63-3,4-1,2.84.78,5.13,1,7.5,6.29,2.21,10.71.26,16.5-1.5l3.5-.5c1.49-1.06,2-3.86,3.5-5,3-2.22,6.28-4,8.5-7,3.08,0,3.42.38,5,1.5-.33,1.34-.34,6.56-1,8l-3,2.5c-4.36,8.74-9,27.07,3.5,30.5,5.74,1.58,9-4.8,11-7.5l8-8c3.41-6.14,4.35-13.46,7.5-20,9.12,1.13,3.68,15.35,6,23.5,1.79,6.27,5.7,17.15,13.5,17.5,1.81-1.89,5.64-3.35,7-5.5,1-1.64-.14-4.28.5-6.5.77-2.68,3.12-5.31,4.5-7.5,3.16,0,3.8.43,5.5,1.5,0,5.66,1.25,9.28,2,13.5v23c.94,3.46,3.74,6.26,5.5,9,12.41,3.35,11-1.29,15-9,2.24-4.27,4.46-4.48,3.5-11.5-.77-5.6,1.81-12-1-15.5,0-3,.48-3.38,1.5-5H539c-.19,3.11-1.22,4.43-4,5,1,4.64,7.42,2.52,11,4.5l2,2c-.69,5.13-2.93,8.2-4,12.5-2.85,11.44,7.54,19,11.5,24.5,2,.21,4.41,1.07,6,0,5.2-.61,14.88-14.68,16.5-19.5v-6l-3-3a19.74,19.74,0,0,1-1-10.5c.78-2.9,3-6.28,5.5-7.5,1.17-.57,2.27-.1,3-1,1.79-2.2,1.26-5.19,4-6.5-.68-5.43-12.83-13.4-19.5-13.5-2,2.15-7.24,7.61-10,8.5-1.6.6-2.43-1-4-1.5H542c-3.92-1.24-6.65-2.65-12.5-1.5l-1-1c.11-6.75,4-8.51,6.5-13l4.5.5c.11-2.12.35-3.7-1-4.5v-7c-2.37-4.12-18.36-7.23-26-7,.2-14.84-13.18-8.39-18-16-4.37.12-9,5.81-10.5,9-1.48.3-4.61-.14-6.5.5s-4.4,2.39-7,3a5.38,5.38,0,0,0-1.5-1c.51-3.65,4.57-7.75,8.5-8-.6-.39-2.18,0-3-.5s-1.32-2.33-2-3c-1.95-1.91-4.81-2.27-6-5h-3c.11-7.31.76-18.49-2-23-.48-.78-2.35-1.3-3-2-.82-.87-.24-1.93-1-3s-2.94-1.94-4-3c-3-3-3.74-6-10-6C443.34,45.22,433.66,43.56,430.5,36.5Zm182,134h-3c-.29-.17-.71-1.81-1-2h-2c-3.2-1.83-2.94-1.78-6.5-1V171c.85,1.84,4.14,1.56,6,2.5,4.85,2.44,9.85,7.23,16.5,7.5C621.45,176.38,616.27,172.52,612.5,170.5ZM582,218a26.91,26.91,0,0,1,4.5,5c.62,1.09.2,2.17,1,3,1.29,1.34,3.65,1.72,5,3,2.74.09,5.62.25,7-1,2.07-1.15,2.61-5.61,4-7.5,1.85-2.51,5.43-3.15,8-5,2.27-1.63,2.56-5.31,5-7-.17-2.33-.33-4.67-.5-7-.64-1.79-3.77-2.61-2-5.5-1.75-3.08-11.45-5.47-14.5-8.5-6.62.37-4.5,7.45-10.5,8.5a16.19,16.19,0,0,0,0,3.5l-.5.5H586C585.81,207.11,581.94,209.84,582,218Z"/>
  </g>
  <g id="lining" class="cls-1">
    <path class="cls-2" d="M345,23.5c3.59,3,7.15,6.66,10.5,10,.73.73,1.18,2.43,2,3h2c.42.28,1,1.74,1.5,2h2.5c.86.54,1.51,2.44,2.5,3,5.64,3.19,11.44,4,20.5,4C387.57,47,388,47.08,388,50c-2.05,2.43-3.19,4.83-6,6.5-1.21.72-2.72.25-4,1-1.53.9-1.49,3-2.5,4.5L371,66c-6.14-1.34-12.36-5.18-17-8.5-2.57-1.84-4-5.07-8-5.5-.79,1.25-1.77,2.11-3,1.5-3.7-1.24-6.12-5.35-9-7.5s-5.94-3.39-9-5.5l-3-3c-2.73-1.59-5.5-.55-6-4.5,3.33-3.43,4.53-7.59,10-9C332.56,22.32,341.67,27.21,345,23.5Zm-52,8c-4.41.35-5.65,4.54-8,7l-6.5,6c-.17.83-.33,1.67-.5,2.5-.48.81-2.15,2.15-2.5,3-.17,1.67-.33,3.33-.5,5-2.17,5.21-5.05,8.83-2.5,16.5,1.34,4-.3,6.46,2,9.5,1,2.6,4.63,3.19,6.5,5,6.21-.54,6.3-4,9-8,2-2.89,16.77-10.82,23.5-9,8.07,2.18,12.74,7,19,10.5,5.23,2.9,10,4.29,15.5,7,9.69,4.79,12.18,9.8,23.5,2.5.33-1.65,1.06-4.89,0-6.5-1.58-2.39-4.41-.43-7.5-1.5-1.92-.67-3.6-3.25-5.5-4l-3.5-.5L351.5,73H344c-3.07-.9-3.69-4.08-6-5.5-8.33-5.13-25.6-11.27-38.5-6.5-2.15.8-3.22,4.17-5,5.5s-4.61,2-6.5,3.5h-2a35,35,0,0,1,4-8l3.5-2.5c.17-1.5.33-3,.5-4.5,1.09-3.09,4.4-5.65,5.5-9,.31-.71-1.48-9.86-1.5-14C296.25,32.05,294,32.17,293,31.5Zm-190,146a103.49,103.49,0,0,0,11,3.5h4c3.23.94,8.69,3.14,12,4s28.55.41,31-.5c2.69-1,6.24-3.57,9-4.5,3.18-1.07,5.64,0,9-1,3.13-1,10.16-2.78,13-4.5,1.87-1.13,4.14-3.45,6-4.5l4.5-.5c2.81-1.3,5.57-4.37,8-6,2.24-1.5,5.33-1.37,7.5-3,1.65-1.24,2-4,4-5,2.81-1.42,6.55-.42,9-2,3.19-2.06,4.93-5.65,7-9,.88-1.42,2.71-1,4-2l1.5-4c1.51-2.26,5.51-2.3,7-4.5l1-3.5,3-2.5c1.1-1.55,1.32-3.58,2.5-5v-1c-2.51-.08-4.51-1.39-6.5-1-2.44.48-5.37,3.25-7.5,4h-3.5c-5.84,2.06-8.8,7.72-12.5,12a7.9,7.9,0,0,1-3.5-1,8.91,8.91,0,0,1-.5-6.5c.72-2,3.55-3.16,4.5-5,2.44-4.71,2.39-10.91,5.5-15v-1c-3.83.73-5.87,3.65-9,5-1.85.8-2.94.1-4.5,1l-1.5,2h-3.5c-.6.23-2.9,1.75-3.5,2h-2.5c-.51.22-2,1.8-2.5,2h-4.5c-14.56,5.2-38.55,5.15-53,0H143c-2.26-.8-6.25-2.18-8.5-3H131c-1.4-.53-3.44-2.52-4.5-3H123c-3.4-1.36-7.13-4.53-10.5-6H110l-1.5-2c-2.65-1.6-4.87-2.36-7.5-4-2.32-1.45-3.86-4-7-6L88,90c-6.71-6.71-17.35-19.21-25.5-23.5-5.79-3-20.38-4.81-28.5-2H29.5l-1.5,2H25.5c-3.37,1.72-4.94,6.82-8,9,.17,4.9,3.13,8.94,1,11,.92,1.6,3,1.62,4,3s1,3.14,2,4.5l3,2.5c.33,1.17.67,2.33,1,3.5.63.83,2.13.86,3,1.5l9,9c2,2.74,3,5.64,5,8.5l2,1.5,1,4.5c.6.83,2.14.87,3,1.5,2.52,1.85,4.41,4.65,6.5,7,1.4,1.57,3.58,2.48,5,4,2,2.14,1.68,6.18,3.5,8.5.74.94,6.16,3.49,7.5,4.5,3.27,2.47,5,6.66,7.5,10,1,1.3,2.06,1.07,3.5,2,2.39,1.54,5.53,7.14,6,10.5C97.08,173.12,98.87,175.9,103,177.5Z"/>
  </g>
  <g id="nike" class="cls-1">
    <path class="cls-2" d="M366,160c7.16-.34,19.09,11.11,25.5,14.5,17.83,9.42,34.74,25.59,43,44.5,1.42,3.26.53,6.39,1.5,10,6,22.12-10.59,42.9-23,50.5-6.78,4.15-15.24,5.29-24,7.5-4.38,1.1-12.84-1-18.5-1-11.56,0-23.26.37-32.5-2h-6c-2.21-.56-6.79-1.43-9-2h-6c-42-10.66-86-17.94-126-30-4-1.21-7.32-.18-11-1.5-11.92-4.29-26.35-7.65-38-12-3.32-1.24-6.35-.19-10-1.5-2.6-.93-5.19-4.06-8-5h-5c-1.21-.4-2.81-2.05-4-2.5l-5-.5c-1.69-.63-3.24-2.82-5-3.5l-8-1c-4.69-1.75-9.81-4.86-14-7-2.8-1.43-5.9-1.19-8.5-2.5-2.4-1.21-4.52-3.49-7-4.5-4-1.62-8.22-2.06-12-4-2.63-1.35-4.53-4.85-7-6.5-5-3.31-16.18-6-15-13.5,16.11-9.63,29.7-4.78,44,2l6.5,1c1.82.8,4,2.86,6,3.5l5,.5c2.78,1.22,6.25,3.64,9.5,4.5H110c3.85,1,9.16,2.94,13,4,4.94,1.36,8.88.61,14,2,4.91,1.34,10.9,4.49,16,6l6,.5c1.13.49,2.67,2.09,4,2.5,5.14,1.6,9.48.6,15,2,12.4,3.15,27.72,4.95,40,8h6c12,3.1,29.73,3.89,42,7,2.65.67,5.53-.84,7.5-.5s6,1.51,8,2h9c18.83,4.59,51.66,5.4,65-4.5,5.19-3.85,10.34-11.28,12.5-18,1-3,.11-5.13,1-8.5.79-3,2.19-10.54,1-15C367.92,177.68,365.82,167.82,366,160Z"/>
  </g>
  <g id="vamp" class="cls-1">
    <path class="cls-2" d="M661,204.5c3.87.17,7.17,2,10,3h5.5c.5.19,2,1.8,2.5,2h3.5c.51.2,2,1.8,2.5,2,2.79,1.11,4.68-.05,7.5,1,7.18,2.67,17.19,3.42,24.5,6h8.5c8.62,3,21.6,1.9,30.5,5,3.09,1.08,8.33.07,11,1h13.5c4.74,2.11,14.53,1,21,1h12v1h6v1h3v1c1.68.93,3.15,0,5,1v1h2v1h2v1h2c1.84,1.27,2.87,4.41,4.5,6-.83,15.75-19.54,25-31,30.5l-8.5,1c-6.73,2.39-15.48,5.54-23,7.5h-4c-3.33.85-7.79,2.19-11,3h-5c-4,1-7.78,3-12,4l-10-1c-8.52,2-20.21,1.84-29,4h-14c-12.69,3.08-30-.18-43,3H625c-22.57,0-46.24,1.68-55.5-11.5-2.25-3.2-.52-7.94-1-12-1-8.14,1.4-21.28,1.5-32h1c2.5-1.33,4.13,1.33,6,2,2.89,1,5.24.32,8,1.5a107.36,107.36,0,0,0,12,4.5l7.5.5c1.32.36,2.82,1.66,4,2,20.36,5.8,38.33-7.43,46-18L658,224C660.66,218.2,660.71,211.5,661,204.5Z"/>
  </g>
  <g id="tip" class="cls-1">
    <path class="cls-2" d="M507,218c15.6,3.38,35.25,4.25,49,11,4.69,2.3,12.8.27,13.5,6.5-3.19,4.63-3.34,16.55-1.5,23V271c.4,1.34,2,2.87,2.5,4l1,5c.94,1.45,10.24,7.74,12,8.5l7,1c9,2.9,26.2,1.5,39,1.5,6.53,0,14.5.33,19.5-1h14.5a14.83,14.83,0,0,0,4.5-1h39c3.17-.81,8.73-.48,12.5-1.5,8.56-2.32,14.16-1.73,24.5-4.5h13c3-.78,7.53-1.19,11-2.5,1.2-.45,2.79-2.07,4-2.5l5-.5c5.55-2,13-3.72,18-6,14.79-6.8,41.75-11.07,41.5-32-3.26-.92-4.3-4.66-7.5-6-4.76-2-13.94-3.39-17-5.5a7.17,7.17,0,0,1-2-2.5h3.5c1.76,1.82,6.49.94,9,2,.53.22,2,1.77,2.5,2,4.64,2,8.41,2.54,12.5,5l5,4c.5.7-.15,1.5.5,2,8.9,6.75,15.84,17.21,20.5,28V271c2,4.17,6.42,10.19,4.5,18-3,12-14.21,18.14-25,22.5-2.12.86-4,3.1-6,4s-3.06.26-5,1c-5.91,2.24-13.22,5.44-19,8-8.71,3.86-18.66,4.24-28,7.5-1.71.6-3.36,2.44-5,3-4.45,1.53-9.67,1.93-14,3h-5c-22,6.4-48.77,9.16-72,15-6.6,1.66-14.35.89-20.5,2.5H657c-2.42.65-5.94,2.32-8.5,3H639c-7.68,2-18.76,1-26.5,3H596c-8.8,2.28-22.49,1-33,1-8.13,0-18.49.69-25-1-3.33-.87-7.56.6-9.5,1-1.73.35-2.56-.76-3.5-1H510.5c-2.27-.65-6.71-2.27-9.5-3H478.5c-6-1.6-14.38-2-23-2h-12c-10.54-2.76-23.28-2.58-34.5-5a5.38,5.38,0,0,0-1-1.5c2.39-11.64,9.47-22.24,14.5-31.5,5.87-10.8,11.3-17.35,19-26,1.29-1.45,1.64-3.64,3-5,1.05-1.06,3-1.37,4-2.5,2.4-2.82,4.29-6,7-8.5,3.72-3.4,8.23-5.64,12-9,4-3.56,7.21-8.21,11-12,3.46-3.46,7.75-6.35,11-10C496.4,237.74,500.12,225.36,507,218Z"/>
  </g>
  <g id="foxing" class="cls-1">
    <path class="cls-2" d="M300,111c7.49,1.43,14.26,7.32,20,11,3.7,2.37,6.51.74,9,1.5,2.81.86,5.69,4,8,5.5,3.81,2.52,7.7,2.94,8,9-1.84,1.89-1.17,3.84-2.5,6.5-1.06,2.1-3.5,4.74-4.5,7l-1.5,5.5-2,1.5c-1.59,2.5-1.59,5.44-3,8-1.17,2.13-3.74,4-5,6-.77,1.21-.3,2.65-1,4-.58,1.12-2.43,2.37-3,3.5-.33,1.67-.67,3.33-1,5l-3,2.5c-3.43,4.81-5.56,9.69-9,14.5l-5,4.5A68.21,68.21,0,0,1,297,215c-4.74,4.74-14.22,16.29-22.5,16.5-4.2-3.51-16.47-1.87-23-3.5-14.17-3.53-31.5-3.49-45-7-4.24-1.1-7.5.16-12-1-9.58-2.47-20.66-4.67-30-7-7.61-1.89-15-1-22-3.5-5.65-2-13-4.85-19-7-11.24-4-23.56-4.29-34-9-4-1.82-8.59-5-12.5-7-2.63-1.35-5.61-.72-8.5-2-3.2-1.41-5.81-3.55-9.5-5l.5-1.5c4.47-1.19,13.7-5.2,18-7.5,3.76-2,3.54-5.76,9.5-6,12.22,12,32.62,19.5,56.5,19.5,8.27,0,15.62-.54,21.5-2l6.5-.5c5.53-2.28,11.54-4.28,17-7,2-1,4.19-3.2,6-4,4-1.77,8.61-1.69,12-4,1.72-1.17,2.74-3.82,4.5-5s3.67-1,5.5-2l4-4c1.94-1.41,4.47-1.53,6.5-3,.81-.59,1.18-2.4,2-3,1.41-1,3.27-.84,4.5-2A78.48,78.48,0,0,1,242,140l4-1.5c1.62-1.27,1.85-5.26,3-7,1.87-2.82,5.26-3.62,7.5-6,1.55-1.65,4.36-7.07,6-8l5.5-.5c3.69-.94,8.29-2.61,12-3.5l8,.5c1.53-.37,4.08-1.62,5.5-2C296.16,111.28,298.22,112.25,300,111ZM21,208c-1.08,2.08-3.33,4.22-4,6.5V221c-2,7.19-2,14.7-2,24.5V265c2.11,8.07,1,19.76,3,27.5.59,2.3-.05,8.62-.5,9.5.62,10.27,18.68,13,28,15.5,4,1.07,6.55-.07,10.5,1l7.5,2H69c1.76.6,5.16,2.37,7.5,3h14a31.44,31.44,0,0,1,8,1c6.2,1.65,15.45-.47,21,1H127c5.94,0,13.07-.08,17.5,1,2.93.71,4.49-1,7.5-1a68.18,68.18,0,0,1,16.5,2H180a40.52,40.52,0,0,1,9.5,1c6.61,1.74,16.1-.74,22,1,2.82.83,5.13-.37,7,1a6.56,6.56,0,0,0,4-1c-.28-10.84,7.68-27.44,12-36,.33-1.83.67-3.67,1-5.5.69-1.47,2.3-4,3-5.5l1-4.5c.48-.94,2-2,2.5-3,1.32-2.93,1.21-5.73,3-8-1.91-3.07-14.93-4.09-19.5-5.5-11-3.37-23.93-7-35-10-3.45-.94-5.71-.1-9-1C168.58,247,154,242,141.5,238c-3.12-1-5.72,0-8.5-1-5.6-2.09-12-5.63-17.5-7.5-3.29-1.13-6.12-.76-9.5-2-5-1.86-11.41-4.76-16-7-2.45-1.19-5.12-.8-7.5-2C71,212.74,57.8,207.26,47,200.5c-4.29-2.69-10.82-10.09-16.5-10.5C26.18,195.34,24.41,201.44,21,208Z"/>
  </g>
  <g id="shadow_Image" data-name="shadow Image">
    <image id="shadow_Image-2" data-name="shadow Image" width="1792" height="923" transform="translate(0 0.5) scale(0.5)" xlink:href="shoe1.png"/>
  </g>
</svg>
